# xmcd
#
# Track frame offsets:
#	150
#	17167
#	34077
#	51638
#	72217
#	87478
#	101816
#	120599
#	138787
#	157846
#	175905
#	192627
#	210366
#	222982
#	240983
#	260135
#	277752
#	292358
#	311992
#	326483
#
# Disc length: 4567 seconds
#
# Revision: 0
# Processed by: cddbd v1.5.2PL0 Copyright (c) Steve Scherf et al.
# Submitted via: EasyCDDAExtractor 11.5.0.1
#
DISCID=3311d514
DTITLE=Various Artist - NCT 093
DYEAR=2007
DGENRE=Country
TTITLE0=Kenny Chesney - Beer In Mexico
TTITLE1=Tracy Lawrence ft. Tim McGraw and Kenny Chesney - Find Out Who Your Frie
TTITLE1=nds Are
TTITLE2=Lonestar - Nothing To Prove
TTITLE3=Carrie Underwood - Wasted
TTITLE4=Sugarland - Settlin'
TTITLE5=Eric Church - Guys Like Me
TTITLE6=Alan Jackson - A Woman's Love
TTITLE7=Alison Krauss and John Waite - Missing You 2007
TTITLE8=Heartland - Built To Last
TTITLE9=Jimmy Buffett - Everybody's On The Phone
TTITLE10=Carolina Rain - Isn't She
TTITLE11=Emerson Drive - Moments
TTITLE12=Blaine Larsen - Spoken Like A Man
TTITLE13=Jay Boy Adams - Color You Gone
TTITLE14=Memarie - Cry Like Memphis
TTITLE15=Catherine Britt - What I Did Last Night
TTITLE16=Jeff Carson - When You Said You Loved Me
TTITLE17=Hank Williams, Jr. - A Country Boy Can Survive
TTITLE18=Sammy Kershaw - Baby's Got Her Blue Jeans On
TTITLE19=Todd Fritsch - What's Wrong With Me
EXTD=
EXTT0=
EXTT1=
EXTT2=
EXTT3=
EXTT4=
EXTT5=
EXTT6=
EXTT7=
EXTT8=
EXTT9=
EXTT10=
EXTT11=
EXTT12=
EXTT13=
EXTT14=
EXTT15=
EXTT16=
EXTT17=
EXTT18=
EXTT19=
PLAYORDER=
